<?xml version="1.0" encoding="UTF-8" standalone="no"?>
<!-- Created with Inkscape (http://www.inkscape.org/) -->

<svg
   width="134.86806mm"
   height="22.712494mm"
   viewBox="0 0 134.86806 22.712494"
   version="1.1"
   id="svg5"
   xml:space="preserve"
   inkscape:export-filename=".\bitmap.svg"
   inkscape:export-xdpi="96"
   inkscape:export-ydpi="96"
   sodipodi:docname="bitmap.svg"
   xmlns:inkscape="http://www.inkscape.org/namespaces/inkscape"
   xmlns:sodipodi="http://sodipodi.sourceforge.net/DTD/sodipodi-0.dtd"
   xmlns="http://www.w3.org/2000/svg"
   xmlns:svg="http://www.w3.org/2000/svg"><sodipodi:namedview
     id="namedview7"
     pagecolor="#ffffff"
     bordercolor="#000000"
     borderopacity="0.25"
     inkscape:showpageshadow="2"
     inkscape:pageopacity="0.0"
     inkscape:pagecheckerboard="0"
     inkscape:deskcolor="#d1d1d1"
     inkscape:document-units="mm"
     showgrid="false" /><defs
     id="defs2" /><g
     inkscape:label="Layer 1"
     inkscape:groupmode="layer"
     id="layer1"
     transform="translate(-46.484155,-68.619879)"><path
       style="fill:#ffe001;fill-opacity:1;stroke-width:0.264583"
       d="m 152.79768,87.546942 c -0.0553,-0.714933 -0.0913,-0.719789 -0.23677,-0.719789 -0.59133,0.66359 -0.87371,1.560929 -1.84746,1.5875 -1.0699,0 -1.96258,-1.18035 -2.37989,-3.14681 -0.46703,-2.20072 -0.20284,-4.01889 0.9124,-6.27933 1.74059,-3.52793 4.3364,-4.4056 5.78369,-1.95553 0.62185,1.0527 0.55087,1.56367 -0.26005,1.87198 l -0.70172,0.26679 0.18535,6.67197 c 0.0873,3.141626 1.3217,2.242807 1.35105,2.675377 0.0383,0.56467 0.42312,0.896126 0.0901,0.962866 -2.19011,0.197007 -2.66961,-0.959325 -2.8967,-1.935024 z m -1.41531,-1.447389 c 0.55872,-1.33238 0.85488,-2.86124 1.16145,-5.99587 0.15478,-1.58265 0.38956,-2.70469 0.59214,-2.82989 0.54594,-0.33741 0.0486,-0.57001 -0.54241,-0.25369 -0.74129,0.39673 -2.10149,2.42868 -2.59468,3.87612 -0.64604,1.89603 -0.16037,6.19551 0.69986,6.19551 0.14716,0 0.45481,-0.44648 0.68364,-0.99218 z m -7.90956,5.0257 c -0.0679,-0.1099 -0.25503,-1.86607 -0.41579,-3.90261 -0.16075,-2.03653 -0.42658,-4.9898 -0.59072,-6.56283 -0.31726,-3.04056 -0.1959,-3.55231 0.76971,-3.24583 0.47007,0.14919 0.54833,0.58589 0.84642,4.72263 0.18065,2.50704 0.40882,5.39169 0.50704,6.41033 0.0982,1.01865 0.1373,2.06044 0.0869,2.31511 -0.0907,0.45799 -0.96497,0.64918 -1.20352,0.2632 z m -88.372682,-0.92466 c -0.357611,-0.47295 -2.10525,-3.83646 -3.883645,-7.47448 -1.778391,-3.63802 -3.575455,-7.11229 -3.993473,-7.72059 -0.845587,-1.23051 -0.971664,-1.9367 -0.34576,-1.9367 0.691838,0 1.377667,0.48699 1.767859,1.25532 0.203636,0.40098 0.737608,1.44343 1.186601,2.31655 0.448992,0.87313 1.858187,3.70176 3.131539,6.28585 1.273353,2.58409 2.366749,4.64679 2.429772,4.58376 0.06302,-0.063 -0.203345,-1.69399 -0.591934,-3.62438 -1.072478,-5.32775 -1.654018,-9.72124 -1.493083,-11.28012 0.0615,-0.59576 1.045303,-0.34661 1.567082,0.39687 0.280853,0.40018 0.962427,2.09682 1.514615,3.77031 0.552186,1.67349 1.084305,3.16177 1.182487,3.30729 0.09818,0.14553 0.510431,1.19301 0.916107,2.32775 0.405677,1.13474 0.781208,2.01955 0.834511,1.96625 0.0533,-0.0533 -0.07668,-1.08429 -0.288856,-2.29108 -0.515011,-2.92924 -1.056389,-8.97548 -0.824428,-9.20744 0.101801,-0.1018 0.387739,-0.0578 0.63542,0.0979 0.343287,0.21571 0.559356,1.11986 0.908984,3.80367 0.252259,1.93639 0.828498,5.35229 1.280528,7.59089 0.45203,2.2386 0.755391,4.24344 0.674129,4.4552 -0.08126,0.21176 -0.441028,0.38502 -0.799488,0.38502 -1.078672,0 -2.164033,-1.90307 -4.278956,-7.50274 -0.706628,-1.87093 -1.319604,-3.29721 -1.362173,-3.16951 -0.04257,0.12771 0.160753,1.30128 0.451824,2.60795 0.877369,3.93868 1.686457,9.0217 1.509448,9.48297 -0.285748,0.74465 -1.41454,0.51854 -2.12911,-0.42648 z m 83.858922,0.43065 c -0.32314,-0.8421 -0.94812,-5.28504 -0.94916,-6.74758 -5.3e-4,-0.81855 -0.0766,-1.86585 -0.16887,-2.32732 l -0.16781,-0.83904 -0.60307,1.48381 c -0.81819,2.01313 -1.69199,3.23099 -2.5839,3.60133 -2.49035,1.03406 -4.28179,-4.83647 -2.20651,-7.23071 1.13,-1.30366 2.69024,-1.64771 3.83525,-0.84572 0.33283,0.23313 0.6721,0.35691 0.75394,0.27507 0.26618,-0.26618 0.57956,-2.36075 0.76896,-5.13952 0.10199,-1.49644 0.25694,-2.76238 0.34434,-2.81321 0.0874,-0.0508 0.42679,0.009 0.75421,0.13259 l 0.59531,0.22499 0.002,6.68926 c 0.001,3.67909 0.11359,7.64175 0.24997,8.80592 0.13638,1.16416 0.33046,2.80127 0.43129,3.63802 0.17026,1.41282 0.145,1.52135 -0.35395,1.52135 -0.29551,0 -0.61141,-0.19316 -0.70201,-0.42924 z m -4.01288,-7.05348 c 0.3651,-0.623 0.87243,-1.69557 1.12739,-2.38349 l 0.46356,-1.25075 -0.69422,-0.69422 c -1.41949,-1.41949 -2.98463,-0.0819 -2.98463,2.55077 0,1.45079 0.59016,2.91041 1.17675,2.91041 0.13603,0 0.54605,-0.50972 0.91115,-1.13272 z m -68.011491,5.18582 c -1.514544,-3.41919 -4.239544,-12.51213 -4.3838,-14.62811 -0.06574,-0.96428 0.0071,-1.20007 0.395126,-1.27862 0.739328,-0.14968 1.244061,0.45043 1.244061,1.47913 0,0.97024 1.26057,6.10858 1.591765,6.48836 0.103076,0.1182 0.133937,-0.71524 0.06858,-1.85208 -0.145688,-2.5342 0.318251,-6.9371 0.779578,-7.39843 0.271455,-0.27146 0.470006,-0.27384 0.995268,-0.012 0.601776,0.30002 0.735526,0.73222 1.613622,5.21438 l 0.957459,4.88725 0.136077,-4.2647 c 0.07485,-2.34559 0.208873,-4.38249 0.297842,-4.52644 0.08897,-0.14395 0.440756,-0.2084 0.781754,-0.14322 l 0.619993,0.11852 -0.116565,4.27777 c -0.11456,4.20421 -0.0021,5.35696 1.01093,10.36066 0.32589,1.60972 0.204587,1.9869 -0.639008,1.9869 -1.375384,0 -2.280134,-2.19417 -3.982117,-9.65729 l -0.905084,-3.96875 -0.0123,2.64583 c -0.0141,3.03156 0.289914,5.44418 1.066892,8.46667 0.772092,3.00348 0.767123,3.15926 -0.104002,3.25935 -0.665787,0.0765 -0.797589,-0.0589 -1.416066,-1.45521 z m 91.995261,0.33547 c -0.43928,-0.52931 -0.14013,-0.94898 0.67644,-0.94898 0.53673,0 0.64802,0.11376 0.5797,0.59261 -0.10137,0.71052 -0.79815,0.9082 -1.25614,0.35637 z m 14.146,-0.13244 c -0.11054,-0.35514 0.70309,-3.36976 1.30282,-4.82715 0.14546,-0.35349 -0.10031,-0.52037 -1.26499,-0.85895 -0.79504,-0.23112 -1.51843,-0.61022 -1.60754,-0.84245 -0.13817,-0.36005 0.0621,-0.41398 1.36039,-0.36622 2.28515,0.084 2.18387,0.15268 2.18387,-1.47979 0,-2.17746 -0.30336,-2.59009 -1.74526,-2.37387 -0.93899,0.14081 -1.20128,0.0915 -1.3326,-0.25078 -0.34507,-0.89924 1.63837,-1.55863 2.80702,-0.93318 0.94037,0.50327 1.59376,1.95596 1.59376,3.54343 v 1.49325 l 1.12448,-0.15725 c 0.61846,-0.0865 1.44276,-0.25712 1.83177,-0.37916 0.51097,-0.16031 0.74529,-0.1229 0.84417,0.13478 0.20209,0.52664 -0.30748,0.83603 -2.21835,1.34688 -0.9429,0.25208 -1.84364,0.5876 -2.00164,0.7456 -0.28079,0.28079 -1.16765,3.25767 -1.16822,3.9213 -2.1e-4,0.25158 0.79925,0.33472 3.2186,0.33472 2.33117,0 3.24928,0.0908 3.32909,0.32911 0.18628,0.55633 -0.97774,0.78678 -4.6251,0.91566 -3.03579,0.10727 -3.51904,0.0679 -3.63227,-0.29593 z m -94.71638,-0.0889 c -0.05577,-0.1819 -0.299313,-0.92604 -0.541208,-1.65365 -0.92886,-2.79395 -2.472836,-9.62255 -2.651803,-11.72821 l -0.187256,-2.20322 0.755261,0.0866 c 0.752139,0.0862 0.756656,0.098 1.093544,2.86468 0.535898,4.40096 0.806961,4.60915 0.861203,0.66145 0.05692,-4.14231 0.191821,-4.7625 1.035942,-4.7625 0.341381,0 0.714748,0.1786 0.829704,0.39688 0.114956,0.21828 0.415851,2.15305 0.668655,4.29948 0.252807,2.14643 0.531413,3.9026 0.619131,3.9026 0.08772,0 0.113432,-1.6769 0.05715,-3.72644 -0.107402,-3.91091 0.01072,-4.39823 0.990637,-4.08722 0.527764,0.16751 0.555715,0.35233 0.554133,3.66431 -7.94e-4,1.91834 0.194934,5.25062 0.435226,7.40506 0.264623,2.37262 0.341307,4.01276 0.19448,4.15959 -0.133329,0.13333 -0.5269,0.2756 -0.874602,0.31616 -0.935709,0.10916 -1.558213,-1.15443 -2.243947,-4.55487 -0.321723,-1.59536 -0.67464,-2.99035 -0.784262,-3.09997 -0.220345,-0.22034 -0.06359,1.36991 0.521861,5.29422 0.212736,1.42599 0.316831,2.70591 0.23132,2.84427 -0.227875,0.36871 -1.446752,0.30706 -1.565166,-0.0792 z m 88.22427,0.14387 c -0.70188,-0.25657 -1.62233,-1.2429 -2.04783,-2.19439 -0.89948,-2.01138 -0.40728,-6.0743 1.01458,-8.37495 0.73369,-1.18717 2.52549,-2.73755 3.16381,-2.73755 0.90702,0 2.10277,0.76087 2.10277,1.33801 0,0.70899 -0.78065,0.9872 -1.19191,0.42477 -0.42479,-0.58094 -0.58631,-0.55901 -1.60489,0.2179 -1.09892,0.83818 -2.40857,3.44695 -2.62795,5.23476 -0.21622,1.76205 0.22885,3.7381 1.03866,4.61144 0.55629,0.59993 0.78756,0.66571 1.94839,0.55417 0.84631,-0.0813 1.80263,-0.42527 2.67516,-0.96214 1.55446,-0.95647 1.61462,-0.97316 1.61462,-0.44801 0,0.21316 -0.26789,0.52864 -0.59531,0.70107 -0.32742,0.17242 -0.65484,0.39126 -0.7276,0.48629 -0.0728,0.095 -0.56307,0.4344 -1.08957,0.75414 -0.92222,0.56006 -2.69821,0.75081 -3.67293,0.39449 z m -44.85309,-1.59908 c -0.82114,-4.02109 -2.43886,-9.08877 -2.95518,-9.25745 -0.74207,-0.24243 -0.99836,4.61199 -0.36326,6.88037 0.40052,1.43051 0.0888,2.13218 -0.88552,1.99298 -0.50359,-0.072 -0.60279,-0.44059 -1.12486,-4.17996 -0.7185,-5.14632 -0.86773,-5.82083 -1.28776,-5.82083 -0.69406,0 -1.24864,2.41256 -1.37983,6.00253 -0.10187,2.78802 -0.2079,3.51985 -0.52774,3.64259 -0.64052,0.24579 -1.12693,-0.37093 -1.12693,-1.42883 0,-1.09062 -0.69026,-5.98489 -1.04683,-7.42254 -0.36461,-1.47004 -0.59807,-4.43178 -0.36042,-4.57229 0.11914,-0.0705 0.47156,-0.0316 0.78315,0.0863 0.47518,0.17979 0.5961,0.50872 0.74987,2.03986 0.25449,2.53412 0.47253,2.76318 1.21503,1.27646 0.93751,-1.87719 2.59307,-1.99287 3.32857,-0.23258 0.37217,0.89072 0.40794,0.90968 0.8913,0.47224 0.81514,-0.73769 2.21803,-0.33586 2.75138,0.7881 1.05655,2.2265 3.12582,9.46524 2.88508,10.0926 -0.0777,0.20245 -0.4239,0.3681 -0.76936,0.3681 -0.4728,0 -0.66485,-0.17991 -0.77669,-0.72761 z m -25.790673,-0.31183 c 0,-0.28065 0.149307,-0.6676 0.331796,-0.85989 0.182488,-0.1923 0.74558,-1.36166 1.251315,-2.59859 0.793409,-1.94052 0.933201,-2.61402 1.019273,-4.91077 0.103082,-2.75059 -0.273272,-4.94439 -1.1942,-6.96111 -0.482576,-1.05679 -1.112091,-1.88645 -1.431361,-1.88645 -0.256283,0 -0.663427,1.09549 -0.7375,1.98437 -0.04641,0.5569 -1.019828,0.49583 -1.329838,-0.0834 -0.316738,-0.59182 0.04246,-2.34753 0.592894,-2.89797 0.287605,-0.2876 0.663694,-0.34268 1.39853,-0.20483 1.592207,0.2987 2.584767,1.57761 3.557542,4.58388 0.780592,2.41233 0.822792,2.74265 0.683382,5.34923 -0.101364,1.89531 -0.32644,3.24055 -0.708284,4.23333 -0.30784,0.80036 -0.724789,1.90169 -0.926558,2.4474 l -0.36685,0.99218 h 0.815385 c 0.448464,0 1.936247,-0.19105 3.306187,-0.42457 2.02122,-0.34453 2.63844,-0.36342 3.27392,-0.10019 0.43072,0.17841 0.78312,0.41442 0.78312,0.52447 0,0.40368 -0.70372,0.76805 -1.22175,0.63258 -0.29302,-0.0766 -1.79038,0.0474 -3.32748,0.27565 -1.5371,0.22824 -3.464054,0.41498 -4.282125,0.41498 -1.292646,0 -1.487398,-0.0668 -1.487398,-0.51027 z m 30.506703,-0.008 c -1.3963,-0.85137 -2.23888,-2.99274 -2.27289,-5.77637 -0.0441,-3.61173 0.61265,-4.87473 2.313,-4.44797 1.24579,0.31267 1.40114,2.564 0.4125,5.97817 -0.83269,2.87565 0.58454,4.3629 2.77507,2.91217 1.77911,-1.17826 2.01958,-0.23509 0.25685,1.0074 -1.37826,0.97148 -2.28717,1.05668 -3.48453,0.3266 z m -0.38139,-7.8163 c 0,-0.6767 -0.0335,-0.71572 -0.22739,-0.26458 -0.12507,0.29104 -0.22739,0.88636 -0.22739,1.32292 0,0.6767 0.0335,0.71572 0.22739,0.26458 0.12507,-0.29104 0.22739,-0.88635 0.22739,-1.32292 z m -38.990318,7.80285 c -0.280982,-0.45464 0.144156,-1.32055 0.648354,-1.32055 0.619604,0 1.175353,0.6743 0.978514,1.18725 -0.172014,0.44826 -1.371471,0.54654 -1.626868,0.1333 z m 55.736798,-13.55654 c -0.37237,-0.37237 -0.40187,-1.43117 -0.046,-1.65111 0.42113,-0.26027 1.32838,0.36988 1.32838,0.92266 0,0.66023 -0.86133,1.14951 -1.28238,0.72845 z"
       id="path302"
       sodipodi:nodetypes="cccsssscsscccsssssccssssccccsssssscssssssssscssssssssccssccssssssscccssssssccsssscsssssscscssscsssscsssccsssssssscsscsscsssssssssssssccsssssssscsssssssssssssssssssssscssssscsssssscsssssssssssssssssssssssscsssscsssssssssssssssssssssssss"
       inkscape:export-filename="yelogo.svg"
       inkscape:export-xdpi="96"
       inkscape:export-ydpi="96" /></g></svg>
